<?xml version="1.0" encoding="UTF-8" standalone="no"?>
<!-- Created with Inkscape (http://www.inkscape.org/) -->

<svg
   version="1.1"
   id="svg1"
   width="1023.9337"
   height="797.79529"
   viewBox="0 0 1023.9337 797.79529"
   xml:space="preserve"
   xmlns="http://www.w3.org/2000/svg"
   xmlns:svg="http://www.w3.org/2000/svg"><defs
     id="defs1" /><g
     id="g1"
     transform="translate(0,-113.10235)"><path
       id="path26"
       style="display:inline;opacity:1;fill:#ffffff;fill-opacity:1;stroke:none;stroke-width:37.7953;stroke-linejoin:miter;stroke-miterlimit:4.5;stroke-dasharray:none;stroke-opacity:1;paint-order:stroke fill markers"
       d="m 505.86328,132 a 380,380 0 0 0 -380,380 380,380 0 0 0 380,380 380,380 0 0 0 380,-380 380,380 0 0 0 -380,-380 z" /><path
       id="rect21"
       style="display:inline;opacity:1;fill:#f3903c;fill-opacity:1;stroke:none;stroke-width:0;stroke-linejoin:miter;stroke-miterlimit:4.5;stroke-dasharray:none;stroke-opacity:1;paint-order:normal"
       d="m 143.06641,600.33984 v 4.0918 h 728.33398 v -4.0918 z m 6.14648,22.41797 v 4.0918 h 710.61719 v -4.0918 z m 8.31641,21.69531 v 4.0918 H 851.875 v -4.0918 z m 13.01758,23.14063 v 4.0918 h 667.22656 v -4.0918 z m 13.37695,22.41797 v 4.0918 h 645.5332 v -4.0918 z" /><path
       id="circle20"
       style="display:inline;opacity:1;fill:none;fill-opacity:1;stroke:#dbdbdb;stroke-width:37.7953;stroke-linejoin:miter;stroke-miterlimit:4.5;stroke-dasharray:none;stroke-opacity:1;paint-order:stroke fill markers"
       d="m 505.86328,132 a 380,380 0 0 0 -380,380 380,380 0 0 0 380,380 380,380 0 0 0 380,-380 380,380 0 0 0 -380,-380 z" /><path
       id="path27"
       style="display:inline;opacity:1;fill:none;fill-opacity:1;stroke:#f3903c;stroke-width:4.53543;stroke-linejoin:miter;stroke-miterlimit:4.5;stroke-dasharray:none;stroke-opacity:1;paint-order:normal"
       d="m 783.40039,593.20703 a 8.1514759,8.151475 0 0 0 -8.15039,8.15235 8.1514759,8.151475 0 0 0 8.15039,8.15039 8.1514759,8.151475 0 0 0 8.15234,-8.15039 8.1514759,8.151475 0 0 0 -8.15234,-8.15235 z m -373.28711,1.02344 a 8.1514759,8.151475 0 0 0 -8.15234,8.15039 8.1514759,8.151475 0 0 0 8.15234,8.15234 8.1514759,8.151475 0 0 0 8.15039,-8.15234 8.1514759,8.151475 0 0 0 -8.15039,-8.15039 z m -154.42969,1.02148 a 8.1514759,8.151475 0 0 0 -8.15234,8.15235 8.1514759,8.151475 0 0 0 8.15234,8.15039 8.1514759,8.151475 0 0 0 8.15039,-8.15039 8.1514759,8.151475 0 0 0 -8.15039,-8.15235 z m -29.6582,42.95508 a 8.1514759,8.151475 0 0 0 -8.15234,8.15039 8.1514759,8.151475 0 0 0 8.15234,8.15235 8.1514759,8.151475 0 0 0 8.15039,-8.15235 8.1514759,8.151475 0 0 0 -8.15039,-8.15039 z m 106.36133,0 a 8.1514759,8.151475 0 0 0 -8.15234,8.15039 8.1514759,8.151475 0 0 0 8.15234,8.15235 8.1514759,8.151475 0 0 0 8.15039,-8.15235 8.1514759,8.151475 0 0 0 -8.15039,-8.15039 z m 271.01758,0 a 8.1514759,8.151475 0 0 0 -8.15235,8.15039 8.1514759,8.151475 0 0 0 8.15235,8.15235 8.1514759,8.151475 0 0 0 8.15039,-8.15235 8.1514759,8.151475 0 0 0 -8.15039,-8.15039 z m 108.40625,0 a 8.1514759,8.151475 0 0 0 -8.15039,8.15039 8.1514759,8.151475 0 0 0 8.15039,8.15235 8.1514759,8.151475 0 0 0 8.15234,-8.15235 8.1514759,8.151475 0 0 0 -8.15234,-8.15039 z m -219.88086,23.52149 a 8.1514759,8.151475 0 0 0 -8.15235,8.15234 8.1514759,8.151475 0 0 0 8.15235,8.15039 8.1514759,8.151475 0 0 0 8.15039,-8.15039 8.1514759,8.151475 0 0 0 -8.15039,-8.15234 z m -112.49805,21.47656 a 8.1514759,8.151475 0 0 0 -8.15234,8.15234 8.1514759,8.151475 0 0 0 8.15234,8.15039 8.1514759,8.151475 0 0 0 8.15039,-8.15039 8.1514759,8.151475 0 0 0 -8.15039,-8.15234 z m 410.10547,0 a 8.1514759,8.151475 0 0 0 -8.15234,8.15234 8.1514759,8.151475 0 0 0 8.15234,8.15039 8.1514759,8.151475 0 0 0 8.15234,-8.15039 8.1514759,8.151475 0 0 0 -8.15234,-8.15234 z" /><path
       id="path110"
       style="display:inline;fill:#0262af"
       d="m 597.38281,231.14258 c -4.70488,-0.0707 -6.05938,3.55549 -8.25586,19.85742 -3.63594,26.98575 -10.97484,80.20709 -12.13476,88 -0.61398,4.125 -2.79138,20.19231 -4.83789,35.70508 l -3.72071,28.20508 5.53321,0.6914 c 3.04334,0.38072 14.08324,0.44943 24.5332,0.15235 10.44996,-0.29708 21.025,-0.1937 23.5,0.22851 2.475,0.42221 4.8375,0.82378 5.25,0.89258 0.4125,0.0688 0.75,-0.1486 0.75,-0.48242 0,-1.2896 -4.21474,-32.85339 -6.99609,-52.39258 -4.68519,-32.9133 -9.70369,-68.80009 -13.00586,-93 -3.34047,-24.48043 -4.30344,-27.25743 -9.62891,-27.79688 -0.34469,-0.0349 -0.67267,-0.0558 -0.98633,-0.0605 z M 702.79688,385.6543 c -0.45439,-0.009 -0.89196,0.023 -1.30274,0.10156 -5.20493,0.995 -6.40142,3.87604 -9.47266,22.78711 -1.97672,12.17149 -2.59433,18.38691 -1.94531,19.59961 1.12953,2.11055 5.94794,5.71872 11.23633,8.41406 5.52545,2.81615 6.35706,4.07926 9.2207,13.99414 2.85476,9.88399 4.67332,13.43871 10.82032,21.15234 2.28027,2.86147 4.42608,5.22404 4.76757,5.25 0.3415,0.026 0.21939,-2.09062 -0.27148,-4.70312 -1.29074,-6.86957 -6.46841,-36.58813 -10.41016,-59.75 -1.872,-10.99996 -3.8618,-21.03462 -4.42187,-22.29883 -1.0567,-2.38524 -5.03999,-4.48112 -8.2207,-4.54687 z m -203.78126,2.57617 c -1.17725,-0.006 -2.34047,0.3862 -4.39257,1.16992 -8.37609,3.19888 -6.16948,-4.13706 -23.65625,78.59961 -1.5693,7.42496 -2.54131,13.8001 -2.16016,14.16602 0.38115,0.36593 1.81836,0.89124 3.19336,1.16796 5.68021,1.14318 28.48334,0.0174 32,-1.58007 3.49938,-1.58963 3.49818,-1.59026 -6.5,-1.77149 -5.49996,-0.0997 -11.0631,-0.4794 -12.36133,-0.84375 -2.2341,-0.62701 -2.15378,-0.76094 1.5,-2.49805 6.94596,-3.30225 15.7057,-10.2365 24.61133,-19.48437 4.8125,-4.99744 8.75,-9.55201 8.75,-10.12109 0,-0.60316 -2.81524,-1.06653 -6.75,-1.11133 -3.7125,-0.0423 -8.55,-0.67536 -10.75,-1.40625 -3.69726,-1.2283 -3.82269,-1.38417 -1.6543,-2.06446 1.29028,-0.40476 5.91444,-2.46138 10.27539,-4.57031 6.99112,-3.38079 7.86877,-4.10448 7.42188,-6.10937 -0.27876,-1.25062 -1.92343,-9.69848 -3.6543,-18.77344 -1.9565,-10.25796 -3.85818,-17.51063 -5.02929,-19.17188 -1.03609,-1.46962 -3.90305,-3.44415 -6.3711,-4.38671 -2.10362,-0.80336 -3.29537,-1.20538 -4.47266,-1.21094 z m 287.27344,71.87305 c -0.9373,10e-4 -1.87644,0.0794 -2.79883,0.23242 -3.68951,0.61212 -7.09655,2.41364 -8.91406,5.1875 -0.84732,1.29317 -7.39405,24.91226 -14.54883,52.48633 -7.15474,27.57403 -13.42738,50.8838 -13.93945,51.79882 -0.79749,1.42503 -1.00491,1.30702 -1.44727,-0.82226 -0.95109,-4.57822 -3.82056,-17.46836 -4.23632,-19.03321 -0.64326,-2.42106 -12.63979,-1.34511 -18.6211,1.66993 -2.59417,1.30768 -5.67952,2.37695 -6.85742,2.37695 -1.77078,0 -2.03737,0.42294 -1.53125,2.43945 0.33667,1.34139 2.20611,11.57893 4.1543,22.75 1.94819,11.17106 4.41323,24.81059 5.47656,30.31055 1.06332,5.49996 2.83372,15.96725 3.93359,23.25977 1.09992,7.29249 2.66038,14.53827 3.46875,16.10156 1.54421,2.98618 4.81802,5.57314 8.11329,6.41015 3.53621,0.89825 5.47788,0.74822 8.91406,-0.6875 5.74308,-2.39959 5.29898,-1.23817 17.5625,-46.08398 3.73699,-13.66568 7.65577,-28.52882 16.08398,-61 2.28413,-8.79996 4.9375,-18.7 5.89649,-22 l 1.74414,-6 2.76562,6 c 1.52107,3.3 4.95026,11.36098 7.6211,17.91406 8.60094,21.10316 6.60113,20.11711 38.86523,19.17383 30.10642,-0.88021 55.67254,-1.99093 93.50586,-4.06055 15.94992,-0.87252 30.58705,-1.4834 32.52734,-1.35937 1.94033,0.12403 3.96533,-0.0401 4.5,-0.36328 0.53467,-0.32318 9.41863,-0.91625 19.74024,-1.31836 10.32161,-0.40211 18.96932,-1.06133 19.21872,-1.46485 0.2494,-0.40353 2.6802,-0.51937 5.4024,-0.25781 3.0168,0.28988 6.1535,-0.0575 8.0312,-0.88867 6.0013,-2.65645 2.474,-5.30111 -5.5937,-4.19531 -2.4452,0.33516 -4.8436,0.13717 -5.5625,-0.45899 -0.7524,-0.62396 -17.24945,-1.7267 -40.7637,-2.72461 -21.72492,-0.92197 -40.4,-2.05372 -41.5,-2.51367 -1.1,-0.45995 -11.00004,-1.06216 -22,-1.33984 -19.3873,-0.48942 -66.72883,-3.14124 -75.15039,-4.20899 l -4.15039,-0.52539 -8.78906,-22.20508 c -20.88248,-52.74605 -19.6432,-49.95602 -23.3086,-52.41992 -2.21238,-1.48716 -5.00059,-2.18284 -7.8125,-2.17968 z m -372.90039,21.49023 c -0.89428,-0.0462 -1.78696,4.2e-4 -2.66601,0.13281 -5.27438,0.79437 -10.0643,4.68014 -11.81836,10.1875 -1.03279,3.24277 -11.04637,29.73538 -19.21289,50.83203 -1.7557,4.53551 -3.4466,8.248 -3.75782,8.25 -0.31122,0.002 -1.48197,-1.68359 -2.60351,-3.74609 -16.31668,-30.006 -18.20728,-32.57408 -24.90235,-33.83008 -2.32005,-0.43525 -5.03337,-0.0789 -7.98632,1.04883 -3.8931,1.48679 -5.52835,3.18543 -12.63282,13.11914 L 319.64648,539 l -6.07226,0.0508 c -3.34035,0.0279 -7.87422,0.2491 -10.07422,0.49219 -2.2,0.24309 -35.72516,1.56726 -74.5,2.94141 -38.77484,1.3741 -72.075,2.7217 -74,2.99414 -1.925,0.27244 -27.35012,0.96868 -56.5,1.54687 -29.149884,0.57819 -53.675004,1.32069 -54.5,1.65039 -2.116255,0.84575 -6.086229,1.12915 -26.25,1.87891 C 3.5638869,551.08213 0,551.4945 0,552.60742 c 0,1.02721 1.5084294,1.39569 5.75,1.4043 3.1624872,0.006 23.750088,0.66719 45.75,1.46875 48.61783,1.77138 63.16238,2.23317 112,3.55469 43.48512,1.17669 87.33458,2.50583 132,4.00195 17.04992,0.57111 32.76315,0.74455 34.91797,0.38477 2.96133,-0.49451 5.1176,-1.90705 8.83398,-5.78321 5.93513,-6.19018 4.27339,-7.79603 17.41016,16.81836 11.9676,22.42376 11.20633,21.25203 14.98047,23.04297 4.64203,2.20281 10.47541,1.8918 14.45898,-0.77148 3.61822,-2.41904 3.40858,-1.96022 18.46094,-40.20313 3.45825,-8.78619 6.73832,-16.12501 7.28906,-16.30859 0.55073,-0.18357 5.12683,12.40484 10.16992,27.97461 5.04314,15.56973 10.92683,33.64309 13.07422,40.16211 2.14744,6.51898 3.9043,12.29979 3.9043,12.84765 0,2.58449 3.65352,8.22715 6.41992,9.91406 4.26244,2.59923 11.52794,2.50036 14.96485,-0.20312 4.74091,-3.72923 4.56572,-3.1039 17.64843,-62.91211 1.62419,-7.42496 4.70103,-21.37504 6.83789,-31 l 3.88672,-17.5 -8.3789,-7.83984 C 475.77077,507.34805 472,503.42855 472,502.95117 c 0,-0.47738 4.61254,-0.63361 10.25,-0.34765 l 10.25,0.51953 -8,-4.30469 c -4.52552,-2.43538 -10.0213,-6.42189 -12.6543,-9.17969 l -4.65429,-4.875 -1.18555,5.86719 c -0.65167,3.22769 -3.8091,18.24422 -7.01563,33.36914 -3.20649,15.12492 -6.35644,30.13616 -7.00195,33.35742 -0.64552,3.2213 -1.53858,5.4713 -1.98437,5 -0.44579,-0.4713 -6.28175,-17.60734 -12.9668,-38.08008 -13.14012,-40.24102 -13.08683,-40.13632 -20.97266,-42.25976 -0.8856,-0.23847 -1.7815,-0.37759 -2.67578,-0.42383 z m 218.34766,15.6582 c -0.44539,0.0142 -0.85533,0.0621 -1.19922,0.14844 -3.86654,0.97044 -9.39764,6.39199 -12.25391,12.00977 l -2.58789,5.08984 1.8418,13.35156 c 2.22236,16.11181 2.00511,15.77534 20.75977,32.23828 7.26128,6.37405 13.33843,11.25563 13.5039,10.84766 0.37039,-0.91318 -5.28472,-44.89571 -7.44922,-57.9375 -1.68267,-10.13855 -3.21608,-12.87289 -8.43164,-15.0332 -0.79249,-0.32828 -1.79388,-0.55563 -2.76953,-0.65821 -0.48782,-0.0513 -0.96867,-0.0708 -1.41406,-0.0566 z m 44.81445,20.01758 c -0.10509,0.005 -0.18663,0.0343 -0.24219,0.0898 -0.69957,0.69952 -1.23891,3.93827 -5.33984,32.14062 -1.67949,11.54996 -3.93492,25.91713 -5.01172,31.92578 -1.0768,6.00869 -1.95703,13.74314 -1.95703,17.18945 0,3.44635 -0.45,6.54485 -1,6.88477 -0.55,0.33992 -1.04481,2.27859 -1.09961,4.30859 -0.0548,2.03004 -0.44381,4.81641 -0.86328,6.19141 -1.08842,3.56779 -1.73219,1.36817 -3.07813,-10.5 -0.72491,-6.39242 -1.71033,-10.6423 -2.73046,-11.78125 -2.59691,-2.89925 -11.18386,-7.38853 -19.4043,-10.14453 -9.47327,-3.17602 -10.2278,-3.20248 -9.44922,-0.32422 0.33475,1.2375 1.75098,11.25004 3.14648,22.25 1.39555,10.99996 3.6457,28.10004 5,38 1.35433,9.89996 3.80214,28.57504 5.43946,41.5 1.63733,12.92496 4.54774,35.65004 6.46875,50.5 6.63297,51.27496 6.52036,50.73395 10.88476,52.49414 1.20155,0.48459 2.78509,0.68397 3.51758,0.44336 0.73248,-0.24061 1.72919,-0.4375 2.21485,-0.4375 2.64891,0 3.93321,-7.02743 9.96679,-54.5 1.11845,-8.79996 3.36385,-25.45004 4.98828,-37 1.62443,-11.54996 3.84819,-27.52504 4.94141,-35.5 1.09322,-7.97496 4.25909,-30.02508 7.03516,-49 2.77603,-18.97492 6.19456,-42.37504 7.59765,-52 3.10307,-21.28647 2.94325,-22.13825 -5.80273,-30.77539 -6.68577,-6.60254 -13.64623,-12.03426 -15.22266,-11.95508 z M 511.73438,546 c -0.25631,0 -0.0913,1.9125 0.36523,4.25 2.11221,10.81364 11.4233,61.46167 14.9375,81.25 8.41589,47.38983 7.79952,45.14887 13.16992,47.88672 4.42958,2.2582 11.13777,1.57664 14.37109,-1.46094 3.32758,-3.1261 3.95409,-5.74402 7.98243,-33.42578 4.36251,-29.97843 9.43927,-66.21771 9.72461,-69.41992 0.20481,-2.29856 -0.26437,-2.50978 -9.28516,-4.17188 -5.22496,-0.9627 -10.9029,-2.05519 -12.61719,-2.42773 -2.81533,-0.61181 -3.19152,-0.40092 -3.89648,2.17187 l -0.78125,2.84766 -0.91406,-3.58594 c -0.818,-3.21217 -1.4643,-3.76208 -6.20313,-5.25586 -6.56487,-2.06937 -15.61599,-7.90372 -21.73828,-14.01562 C 514.29227,548.08957 511.99064,546 511.73438,546 Z" /><g
       id="g6"
       style="display:inline"><path
         id="path1"
         style="display:inline;fill:#f5a15a;fill-opacity:1;stroke-width:0.359309"
         d="m 635.30563,385.37016 c -0.46056,0.48111 -0.39857,0.97138 -0.39844,1.4414 0.002,5.92421 0.007,11.84924 0.01,17.77344 10e-4,2.27503 -0.20966,2.44101 -2.35156,1.58789 -4.10468,-1.6349 -8.39274,-2.32928 -12.76758,-2.70703 -8.38294,-0.72385 -16.75414,-0.0151 -25.12695,0.15039 -17.08708,0.33773 -33.97425,-0.69205 -50.24414,-6.55469 -0.40896,-0.14735 -0.88304,-0.48405 -1.42578,0.14258 1.05001,2.8848 2.7861,5.43229 4.73437,7.85547 2.83377,3.52451 6.14311,6.53648 9.84375,9.12695 0.54611,0.38229 1.13326,0.77204 1.00391,1.55664 -0.12003,0.7281 -0.80487,0.83786 -1.35547,1.00977 -1.71143,0.53433 -3.45291,0.9775 -5.15625,1.53516 -8.50197,2.78343 -16.50277,6.71624 -24.46875,10.72656 -9.29798,4.68091 -18.44686,9.68721 -28.40235,12.92382 -0.28847,0.0938 -0.56799,0.20226 -0.65234,0.58789 0.21665,0.67082 0.88438,0.69613 1.41992,0.85548 2.46985,0.73486 4.99145,1.23891 7.54297,1.5996 3.57462,0.50534 7.164,0.45915 10.75781,0.33594 0.52328,-0.0179 1.14408,-0.10144 1.43946,0.48438 0.29467,0.58439 -0.12105,1.02764 -0.46875,1.43554 -1.04796,1.22941 -2.12761,2.43264 -3.16602,3.66992 -9.01029,10.73599 -19.00615,20.24773 -32.08203,25.9629 -0.50513,0.22077 -1.20116,0.29239 -1.34766,1.25195 6.33462,1.67362 12.92824,1.13142 19.53321,1.92187 -0.60731,1.45238 -1.6972,1.55021 -2.62501,1.76954 -8.78471,2.07663 -17.62646,2.35341 -26.55273,0.95703 -2.25832,-0.35331 -4.45994,-1.16999 -6.75781,-1.17969 -0.15988,0.69417 0.0373,1.13958 0.26953,1.55469 1.646,2.94262 3.60515,5.63946 6.11328,7.92383 4.27046,3.88944 9.44636,6.27173 14.66602,8.84179 1.25565,0.59068 2.55788,0.88608 3.48437,2.50781 -6.68641,-0.59573 -13.04929,-0.28222 -19.39453,-1.1289 -0.0316,1.14348 0.51268,1.50135 0.89844,1.92968 3.28709,3.6498 6.79152,7.0829 10.34961,10.46876 6.6346,6.31346 13.28155,12.61415 18.98828,19.82812 3.63874,4.59979 7.36501,9.13374 11.18945,13.58008 5.10832,5.93902 10.87132,11.12756 17.91406,14.74023 11.65642,5.97934 24.23644,8.80538 37.05469,10.74024 8.93009,1.34795 17.89715,2.44557 26.83594,3.73828 7.50345,1.08516 14.99374,2.25507 22.48047,3.45117 9.53146,1.52276 18.8942,3.66842 27.64648,7.92187 8.08135,3.92742 15.20547,8.88292 18.86329,17.56446 0.0904,0.21452 0.25961,0.40953 0.59375,0.30078 0.42617,-0.34633 0.25257,-0.85558 0.24804,-1.30469 -0.0793,-7.88388 -2.06219,-15.2535 -6.02539,-22.07617 -4.39984,-7.57431 -10.68082,-13.46644 -17.16211,-19.18359 -6.01213,-5.30327 -12.28087,-10.34644 -17.40625,-16.57422 -6.40451,-7.78205 -9.26863,-16.72783 -7.81445,-26.71875 0.95561,-6.56555 3.65032,-12.51384 8.59961,-17.19531 3.22159,-3.04728 6.97608,-3.95597 11.27929,-2.76954 3.03676,0.83728 5.2469,2.93806 7.33204,5.01172 5.63149,5.60044 12.87147,7.64168 20.17382,9.55078 4.11172,1.07497 8.231,2.03422 12.06251,3.95704 7.74203,3.88528 13.88161,9.71762 19.58593,16.06835 2.7319,3.04145 4.4609,6.62191 5.31641,10.63477 0.31101,1.45891 0.74029,2.9007 1.21484,4.3164 0.97233,2.90079 3.03601,4.60502 5.96289,5.42383 4.91437,1.37482 9.48621,0.38763 13.86133,-1.91601 3.21395,-1.69228 6.48689,-2.15711 10.18164,-1.95703 6.94686,0.37616 9.57752,-1.59399 11.15625,-6.73438 1.74617,-5.68547 4.51085,-10.80111 7.91016,-15.60742 3.03918,-4.29715 3.11582,-8.68761 0.95898,-13.38086 -2.51406,-5.47059 -5.83066,-10.4423 -9.19531,-15.38672 -6.10291,-8.96833 -13.04063,-17.306 -19.91407,-25.67383 -5.25727,-6.40025 -9.3251,-13.29429 -11.16992,-21.42968 -0.52797,-2.32833 -1.3242,-4.59452 -1.95703,-6.90039 -1.0177,-3.70838 -3.67136,-6.02824 -6.88867,-7.64454 -5.9001,-2.96403 -10.76056,-7.06897 -14.75,-12.30273 -1.30065,-1.70631 -2.86814,-3.209 -4.31836,-4.80078 -0.45482,-0.49922 -1.00169,-0.78992 -1.68945,-0.92969 -5.62876,-1.14383 -11.33808,-1.64333 -17.04688,-2.12109 -1.06485,-0.0891 -1.61346,-0.48494 -1.95703,-1.45703 -0.59929,-1.69568 -1.37526,-3.31955 -2.3457,-4.83789 -5.85424,-9.15943 -13.25779,-16.95594 -21.37305,-24.10547 -1.06179,-0.93543 -2.14597,-2.06837 -3.71875,-2.13867 z m 5.42773,13.72265 c 1.2906,2.0981 1.65339,4.49446 2.28906,6.79102 0.57405,2.07394 1.01462,4.18444 1.60938,6.25195 0.94623,3.28938 2.83024,5.90713 5.77148,7.73047 2.04512,1.26781 4.06991,2.569 6.46875,4.08594 -0.57241,-4.19486 -3.80718,-5.50998 -6.13672,-7.57813 -2.2378,-1.85448 -3.1121,-4.20137 -3.86718,-6.62305 -0.98843,-3.16998 -1.99453,-6.33488 -2.82227,-9.58203 1.56156,1.03115 2.50147,2.55208 3.64258,3.88282 3.0005,3.49911 6.00878,6.99694 8.41601,10.95117 1.15618,1.8992 2.18736,3.86899 2.4629,6.11523 0.13686,1.11573 0.72472,1.50629 1.77343,1.58985 4.8833,0.3891 9.76343,0.81791 14.64453,1.23437 2.1596,0.18425 4.0836,0.87349 5.53711,2.58008 1.66849,1.95899 3.35523,3.90169 5.01367,5.86914 3.23303,3.83547 6.77886,7.26609 11.5293,9.20703 3.66984,1.49942 6.08458,4.10647 7.0957,8.00781 0.82512,3.18357 1.90325,6.30403 2.65039,9.50391 1.00563,4.30696 3.15266,7.93549 5.82813,11.39648 8.09106,10.4666 16.71628,20.51388 24.48438,31.23633 2.89565,3.9969 4.86279,8.52311 7.59375,12.60156 0.43299,0.64671 0.80253,1.35112 1.31835,1.92383 2.42117,2.68823 2.33152,5.46247 0.39063,8.33789 -0.80351,1.19035 -1.54646,2.43041 -2.42969,3.5586 -2.93653,3.75103 -4.82638,7.94392 -5.69726,12.63281 -0.55614,2.99423 -1.09228,4.04406 -5.09766,4.32422 -2.28877,0.1601 -3.30239,-0.53189 -3.99219,-2.74414 -0.49668,-1.59286 -0.74518,-3.26302 -1.11328,-4.89649 -1.05231,-4.66937 -3.3786,-6.50066 -8.13281,-6.28906 -2.36357,0.10519 -4.70134,0.43622 -7.31836,1.63281 4.62346,2.07265 5.54126,6.26157 7.04883,10.06836 0.15417,0.38933 0.31306,0.778 0.49219,1.15625 1.29052,2.72514 1.28076,2.69927 -1.55274,4.02149 -3.76195,1.75546 -7.46255,1.9331 -11.14453,-0.22657 -0.90229,-0.52922 -1.35806,-1.17175 -1.41406,-2.27734 -0.27955,-5.51755 -0.99534,-10.96646 -3.02344,-16.16015 -3.37716,-8.64842 -9.74598,-14.14943 -18.29492,-17.34375 -4.82356,-1.80231 -9.83363,-2.81954 -14.89453,-3.71094 -4.98396,-0.87785 -10.0104,-1.5393 -14.91407,-2.875 -5.11724,-1.39387 -8.43558,-4.82532 -10.83593,-9.30469 -4.11327,-7.67582 -4.33824,-15.40163 -0.0586,-23.10938 1.21017,-2.17954 2.92092,-3.92661 4.91016,-5.4121 0.41718,-0.31156 0.81313,-0.65098 1.20117,-0.96289 -0.39247,-0.7458 -1.00091,-0.57946 -1.49414,-0.54493 -12.70032,0.88872 -24.34815,4.42628 -33.49219,13.83594 -6.07191,6.24831 -9.73294,13.82474 -11.67773,22.29297 -1.55807,6.78431 -1.796,13.60271 -1.04492,20.5 0.90112,8.2753 4.26891,15.46242 9.16406,22.10742 5.82714,7.91018 13.12961,14.21934 20.90039,20.07618 6.11297,4.60734 12.51055,8.88388 17.41211,14.9082 1.5362,1.8881 2.91329,3.87235 4.01953,6.39257 -1.30247,-0.35209 -1.95266,-1.18201 -2.76562,-1.70703 -7.35317,-4.7487 -15.56453,-7.25608 -23.96875,-9.27539 -5.0546,-1.21453 -10.15027,-2.21618 -15.29102,-2.99023 -0.92454,-0.13924 -1.65028,-0.62173 -2.31055,-1.27735 -9.02987,-8.96623 -15.3535,-19.48936 -18.5957,-31.85156 -2.35433,-8.97683 -2.67461,-18.06706 -1.89844,-27.24609 0.0586,-0.69244 0.34312,-1.42816 -0.98047,-2.06836 -2.03098,10.31837 -2.78967,20.51921 -1.73632,30.83203 1.07046,10.48038 4.35253,20.18346 10.68359,28.76758 -0.0797,0.14123 -0.15856,0.2826 -0.23828,0.42383 -1.79055,-0.18908 -3.58521,-0.34634 -5.3711,-0.57227 -6.94249,-0.87818 -13.90545,-1.63354 -20.81836,-2.70508 -10.2669,-1.5914 -20.57687,-2.9022 -30.33398,-6.95508 -8.87549,-3.68665 -14.1186,-10.12243 -15.87305,-19.35156 -4.22232,-22.21135 -1.65161,-43.67486 8.21485,-64.03906 9.02775,-18.63315 23.37938,-31.99549 42.01562,-40.89063 7.70078,-3.6756 15.72664,-6.41079 23.98242,-8.41015 8.36293,-2.0253 16.87759,-3.24053 25.47657,-3.86133 5.07492,-0.36638 10.13968,-0.76449 15.23437,-0.69336 1.31737,0.0184 2.39712,0.32696 3.48438,1.10156 2.55432,1.81981 5.42417,2.76221 8.60351,2.53711 0.55863,-0.0396 1.22599,0.15114 1.61133,-0.54296 -0.40267,-0.7172 -1.18473,-0.78022 -1.82813,-0.96875 -5.62478,-1.64822 -9.10624,-5.32011 -10.4082,-11.01173 -1.09055,-4.76731 -0.97989,-9.56762 -0.10742,-14.4082 z m -3.94726,28.89649 c -0.34072,-0.0379 -0.74889,0.0656 -1.06641,0.10937 -2.43045,0.33539 -4.89278,0.42034 -7.31055,0.76172 -8.28277,1.1695 -16.52561,2.57022 -24.60742,4.80859 -11.43615,3.16742 -22.3034,7.58725 -32.16406,14.28907 -12.63592,8.58802 -21.93375,19.87167 -27.45508,34.1621 -4.24009,10.97432 -5.82673,22.40676 -5.64063,34.29883 0.0928,1.6086 0.22362,3.04081 0.26563,4.47462 0.27193,9.28087 2.23173,18.25572 4.88477,27.10546 0.19734,0.65828 0.41004,1.37786 1.24413,1.41407 0.41774,-0.36958 0.34475,-0.73364 0.31446,-1.0879 -0.32081,-3.75441 -0.60424,-7.51155 -0.96875,-11.26171 -1.32075,-13.58821 -0.48521,-27.02684 2.95117,-40.25196 3.65803,-14.07812 10.43807,-26.42443 20.75586,-36.76758 10.92942,-10.95627 24.13906,-18.10839 38.58008,-23.21875 9.55812,-3.38241 19.42756,-5.49375 29.40429,-7.16015 0.64326,-0.10744 1.5524,-0.0791 1.47461,-0.93555 -0.0475,-0.52306 -0.32139,-0.70231 -0.6621,-0.74023 z m 42.65038,7.74414 c -0.77418,0.83242 -0.44329,1.52555 -0.25586,2.19336 0.92539,3.29624 3.3411,5.46035 5.80469,7.58007 1.90442,1.63862 3.93435,3.14419 5.50782,5.13477 0.75188,0.95121 1.44022,1.94277 1.72656,3.47265 -1.27699,-0.6104 -1.74009,-1.54604 -2.35938,-2.32031 -0.48466,-0.60595 -0.91301,-1.26479 -1.44726,-1.82226 -0.91336,-0.95311 -1.63914,-0.7381 -2.19141,0.43554 -0.91397,1.94226 -0.4672,4.0551 1.27148,5.50391 1.39875,1.16555 3.01701,2.00111 4.7754,2.39258 1.31626,0.29304 2.0387,0.97959 2.63476,2.13477 1.27721,2.47512 2.93387,4.68691 5.41797,6.08593 0.9809,0.55244 2.07907,1.19913 3.45117,0.11329 -2.37833,-2.72457 -3.38013,-6.03038 -3.90039,-9.37891 -0.88748,-5.71176 -3.88933,-9.79027 -8.81055,-12.79297 -4.16264,-2.65951 -8.54789,-4.79164 -11.625,-8.73242 z m -18.74218,30.71093 c -0.47882,-0.002 -0.90864,0.1672 -0.92969,1.20508 9.87653,1.45021 18.32412,6.06881 25.86133,12.49805 7.49398,6.39236 13.71786,13.82554 18.13086,23.02539 1.63164,-3.89888 -5.40543,-16.52889 -12.9375,-23.94336 -8.42304,-7.85058 -18.3756,-11.83879 -29.64258,-12.75195 -0.15714,-0.0127 -0.32282,-0.0326 -0.48242,-0.0332 z m 78.20117,46.57813 c -1.16173,0.0253 -2.32828,0.76605 -3.29883,2.16797 -2.10666,3.04298 -2.07431,8.14708 0.0918,11.18945 0.8698,1.22164 2.00014,2.0394 3.70117,2.07422 1.82411,-0.25142 2.86323,-1.36618 3.73437,-2.70312 0.59145,-0.90774 0.56065,-1.51741 -0.55859,-2.11133 -4.34054,-2.30328 -4.98742,-6.43822 -1.62891,-9.87891 -0.64894,-0.51171 -1.34398,-0.75345 -2.04101,-0.73828 z" /><path
         style="display:inline;fill:#0262af;stroke:none;stroke-width:4.91339;stroke-linecap:butt;stroke-linejoin:miter;stroke-miterlimit:4;stroke-dasharray:none;stroke-opacity:1;paint-order:stroke fill markers"
         d="m 554.51367,404.41211 c -0.62996,0.26089 -0.29758,1.17515 1.07617,2.71094 2.90904,3.25206 9.25329,7.02799 15.87696,9.44922 l 5.96679,2.18164 -7.46679,0.74218 c -11.14061,1.10675 -18.58832,3.79123 -37.68555,13.58789 -14.81499,7.59995 -16.92942,8.96617 -14.73242,9.51758 1.4109,0.35396 5.35166,0.35631 8.75781,0.006 l 6.19336,-0.63672 -2.61133,1.9961 c -1.43603,1.09841 -6.77391,6.90322 -11.86328,12.89843 -6.04877,7.12545 -11.32528,12.23952 -15.23633,14.76758 l -5.98437,3.86719 9.59765,0.28711 c 5.27859,0.15742 9.59766,0.66673 9.59766,1.13281 0,1.51587 -7.86031,7.99443 -11.58984,9.55274 -7.0117,2.92964 -15.98452,4.01466 -21.50586,2.59961 -2.76229,-0.7083 -5.28177,-1.02683 -5.59961,-0.70899 -0.31784,0.31784 4.99577,3.27756 11.80859,6.57813 6.81281,3.30055 14.18672,7.59557 16.38672,9.54492 l 4,3.54492 -13.25195,-0.26563 c -7.28828,-0.1461 -13.25078,-0.24038 -13.25,-0.20898 7.7e-4,0.0314 2.93649,2.21199 6.52343,4.8457 4.52321,3.32117 10.05207,9.20326 18.03907,19.19336 6.33378,7.92234 11.94735,14.4043 12.47656,14.4043 0.52921,0 0.95416,-0.1125 0.94336,-0.25 -0.0108,-0.1375 -0.66986,-3.85 -1.46485,-8.25 -2.00434,-11.09349 -1.86084,-22.28653 0.4629,-35.87891 C 526.86543,461.33667 553.26202,434.05818 595,424.08984 607.07177,421.20675 624.08831,419 634.25781,419 c 6.07448,0 5.92625,-1.27677 -0.66211,-5.73633 -8.00585,-5.41903 -10.38012,-5.74786 -41.5957,-5.75586 -25.66491,-0.007 -28.92642,-0.19416 -32.79102,-1.88281 -2.47294,-1.08057 -4.06535,-1.47378 -4.69531,-1.21289 z"
         id="path105" /></g></g></svg>
